<svg viewBox="339 203 310 95" xmlns="http://www.w3.org/2000/svg"><g fill="none" fill-rule="evenodd"><path d="M471.53 265.484H448.6l9.101-42.851H441.14L429.147 279h39.492l2.89-13.516zM492.947 279l11.993-56.367h-16.563L476.385 279h16.562zm45.324 0l29.102-56.367h-18.79L531.24 262.32h-.312l-.743-39.687H511.71L517.49 279h20.781z" fill="currentcolor"/><g stroke="currentcolor" stroke-width="4.5"><path d="M408.468 244.447s-10.31-20.337-33.505-2.858-35.866-4.97-35.866-4.97M408.468 264.447s-10.31-20.337-33.505-2.858-35.866-4.97-35.866-4.97"/></g><g stroke="currentcolor" stroke-width="4.5"><path d="M648.468 236.58s-10.31 20.337-33.505 2.858-35.866 4.97-35.866 4.97M648.468 256.58s-10.31 20.337-33.505 2.858-35.866 4.97-35.866 4.97"/></g></g></svg>