<svg version="1" xmlns="http://www.w3.org/2000/svg" width="400" height="400" viewBox="0 0 300.000000 300.000000"><path d="M31.6 84.9c-.2.3-.7 2.4-1 4.6-.4 2.2-3.4 16.6-6.7 32-3.3 15.4-6.3 29.1-6.5 30.5-.2 1.4-1.1 5.6-2 9.5-.9 3.8-1.8 7.9-2 9-.2 1.1-.8 4.3-1.4 7.1-.6 2.8-1.3 6.3-1.6 7.9-.3 1.6-.7 3.2-1 3.7-.3.4 16.3.7 36.8.6l37.3-.3 2.6-12c1.4-6.6 2.5-12.2 2.4-12.5-.2-.3-9.8-.5-21.4-.4-12.6 0-21.1-.3-21.1-.9 0-.5.6-3.5 1.4-6.6.8-3.1 1.7-7 2-8.6.2-1.7 2.8-13.8 5.6-27s5.4-25.1 5.6-26.5c.3-1.4.9-4.2 1.4-6.3.4-2 .5-3.9.1-4.1-1-.6-30.2-.3-30.5.3zM131.6 85.9c-.5 1.6-6.9 31.4-14.2 66.1-2 9.6-4.7 22.1-5.9 27.8l-2.2 10.2h15.3c8.4 0 15.5-.4 15.8-.8.3-.5.7-1.9 1-3.3.2-1.3.9-4.7 1.5-7.4 1.8-9.2 11.1-52.9 12.1-57 .5-2.2 2.1-9.6 3.6-16.5 2.2-10.8 3-14.8 3.7-19.5.1-.6-5.5-1-15-1.1-13.2-.1-15.3.1-15.7 1.5zM188.5 92.9c.4 4.7.9 9.3 1 10.2.2.9.6 5.2 1 9.5.3 4.3.8 9 1 10.4.3 1.4.7 5.2 1 8.5.3 3.3.8 8 1.1 10.5 1.1 11.2 2.5 25 3 30.5.3 3.3.9 8.5 1.2 11.5l.7 5.5 19.5.3 19.5.2 5.8-11.2c3.2-6.2 9.3-18.1 13.5-26.3 4.3-8.3 13.6-26.3 20.7-40 7-13.8 13.2-25.5 13.7-26.2.5-.6.5-1.3.1-1.6-.4-.2-8.4-.4-17.7-.3l-17 .1-8.7 20c-4.7 11-9.1 20.9-9.6 22-.5 1.1-3.7 8.6-7.3 16.7-3.5 8.1-6.6 14.5-6.9 14.2-.3-.2-.6-8.2-.8-17.7-.3-19-1.1-55.1-1.2-55.3-.1 0-7.8-.1-17.2-.1l-17-.1.6 8.7z"/></svg>